<mxfile host="app.diagrams.net" agent="Mozilla/5.0 (Windows NT 10.0; Win64; x64) AppleWebKit/537.36 (KHTML, like Gecko) Chrome/137.0.0.0 Safari/537.36" version="27.1.6">
  <diagram name="Page-1" id="E_u14W7tZS9JErUg8PQ1">
    <mxGraphModel dx="983" dy="536" grid="1" gridSize="10" guides="1" tooltips="1" connect="1" arrows="1" fold="1" page="1" pageScale="1" pageWidth="850" pageHeight="1100" math="0" shadow="0">
      <root>
        <mxCell id="0" />
        <mxCell id="1" parent="0" />
        <mxCell id="JcALqnvvGWlkLFH3uQIO-30" value="" style="rounded=0;whiteSpace=wrap;html=1;" vertex="1" parent="1">
          <mxGeometry x="30" y="411" width="330" height="270" as="geometry" />
        </mxCell>
        <mxCell id="JcALqnvvGWlkLFH3uQIO-29" value="" style="rounded=0;whiteSpace=wrap;html=1;rotation=90;" vertex="1" parent="1">
          <mxGeometry x="358.75" y="557.25" width="275" height="242.5" as="geometry" />
        </mxCell>
        <mxCell id="JcALqnvvGWlkLFH3uQIO-1" value="esp32/&lt;div&gt;Arduino&lt;/div&gt;" style="whiteSpace=wrap;html=1;aspect=fixed;" vertex="1" parent="1">
          <mxGeometry x="390" y="441" width="80" height="80" as="geometry" />
        </mxCell>
        <mxCell id="JcALqnvvGWlkLFH3uQIO-2" value="thermocouple" style="whiteSpace=wrap;html=1;aspect=fixed;" vertex="1" parent="1">
          <mxGeometry x="80" y="441" width="80" height="80" as="geometry" />
        </mxCell>
        <mxCell id="JcALqnvvGWlkLFH3uQIO-3" value="module&lt;br&gt;MAX31855k/&lt;br&gt;MAX6675" style="whiteSpace=wrap;html=1;aspect=fixed;" vertex="1" parent="1">
          <mxGeometry x="240" y="441" width="80" height="80" as="geometry" />
        </mxCell>
        <mxCell id="JcALqnvvGWlkLFH3uQIO-4" value="module +Optocoupler&lt;div&gt;for level water&lt;/div&gt;" style="whiteSpace=wrap;html=1;aspect=fixed;" vertex="1" parent="1">
          <mxGeometry x="390" y="571" width="80" height="80" as="geometry" />
        </mxCell>
        <mxCell id="JcALqnvvGWlkLFH3uQIO-5" value="solide state relay 220V" style="whiteSpace=wrap;html=1;aspect=fixed;" vertex="1" parent="1">
          <mxGeometry x="390" y="301" width="80" height="80" as="geometry" />
        </mxCell>
        <mxCell id="JcALqnvvGWlkLFH3uQIO-6" value="module&lt;div&gt;Spark&lt;/div&gt;" style="whiteSpace=wrap;html=1;aspect=fixed;" vertex="1" parent="1">
          <mxGeometry x="240" y="571" width="80" height="80" as="geometry" />
        </mxCell>
        <mxCell id="JcALqnvvGWlkLFH3uQIO-7" value="transistor/&lt;div&gt;relay for&lt;/div&gt;&lt;div&gt;valve&lt;/div&gt;" style="whiteSpace=wrap;html=1;aspect=fixed;" vertex="1" parent="1">
          <mxGeometry x="520" y="571" width="80" height="80" as="geometry" />
        </mxCell>
        <mxCell id="JcALqnvvGWlkLFH3uQIO-9" value="electrolyzer" style="whiteSpace=wrap;html=1;aspect=fixed;" vertex="1" parent="1">
          <mxGeometry x="390" y="30" width="80" height="80" as="geometry" />
        </mxCell>
        <mxCell id="JcALqnvvGWlkLFH3uQIO-10" value="water&lt;div&gt;test tube&lt;/div&gt;" style="whiteSpace=wrap;html=1;aspect=fixed;" vertex="1" parent="1">
          <mxGeometry x="460" y="701" width="80" height="80" as="geometry" />
        </mxCell>
        <mxCell id="JcALqnvvGWlkLFH3uQIO-11" value="" style="endArrow=classic;html=1;rounded=0;exitX=0.5;exitY=1;exitDx=0;exitDy=0;entryX=1;entryY=0.5;entryDx=0;entryDy=0;" edge="1" parent="1" source="JcALqnvvGWlkLFH3uQIO-7" target="JcALqnvvGWlkLFH3uQIO-10">
          <mxGeometry width="50" height="50" relative="1" as="geometry">
            <mxPoint x="410" y="511" as="sourcePoint" />
            <mxPoint x="600" y="691" as="targetPoint" />
            <Array as="points">
              <mxPoint x="560" y="741" />
            </Array>
          </mxGeometry>
        </mxCell>
        <mxCell id="JcALqnvvGWlkLFH3uQIO-13" value="" style="endArrow=classic;html=1;rounded=0;exitX=0.75;exitY=1;exitDx=0;exitDy=0;entryX=0.5;entryY=0;entryDx=0;entryDy=0;" edge="1" parent="1" source="JcALqnvvGWlkLFH3uQIO-1" target="JcALqnvvGWlkLFH3uQIO-7">
          <mxGeometry width="50" height="50" relative="1" as="geometry">
            <mxPoint x="410" y="511" as="sourcePoint" />
            <mxPoint x="460" y="461" as="targetPoint" />
            <Array as="points">
              <mxPoint x="450" y="551" />
              <mxPoint x="560" y="551" />
            </Array>
          </mxGeometry>
        </mxCell>
        <mxCell id="JcALqnvvGWlkLFH3uQIO-15" value="" style="endArrow=classic;html=1;rounded=0;exitX=0;exitY=0.5;exitDx=0;exitDy=0;entryX=0.579;entryY=1.011;entryDx=0;entryDy=0;entryPerimeter=0;" edge="1" parent="1" source="JcALqnvvGWlkLFH3uQIO-10" target="JcALqnvvGWlkLFH3uQIO-4">
          <mxGeometry width="50" height="50" relative="1" as="geometry">
            <mxPoint x="270" y="701" as="sourcePoint" />
            <mxPoint x="320" y="651" as="targetPoint" />
            <Array as="points">
              <mxPoint x="436" y="741" />
            </Array>
          </mxGeometry>
        </mxCell>
        <mxCell id="JcALqnvvGWlkLFH3uQIO-16" value="" style="endArrow=classic;html=1;rounded=0;entryX=0.5;entryY=1;entryDx=0;entryDy=0;exitX=0.5;exitY=0;exitDx=0;exitDy=0;" edge="1" parent="1" source="JcALqnvvGWlkLFH3uQIO-1" target="JcALqnvvGWlkLFH3uQIO-5">
          <mxGeometry width="50" height="50" relative="1" as="geometry">
            <mxPoint x="270" y="631" as="sourcePoint" />
            <mxPoint x="320" y="581" as="targetPoint" />
          </mxGeometry>
        </mxCell>
        <mxCell id="JcALqnvvGWlkLFH3uQIO-17" value="" style="endArrow=classic;html=1;rounded=0;entryX=0.5;entryY=1;entryDx=0;entryDy=0;exitX=0.5;exitY=0;exitDx=0;exitDy=0;" edge="1" parent="1" source="JcALqnvvGWlkLFH3uQIO-37" target="JcALqnvvGWlkLFH3uQIO-9">
          <mxGeometry width="50" height="50" relative="1" as="geometry">
            <mxPoint x="430" y="160" as="sourcePoint" />
            <mxPoint x="150" y="350" as="targetPoint" />
          </mxGeometry>
        </mxCell>
        <mxCell id="JcALqnvvGWlkLFH3uQIO-18" value="220VAC" style="whiteSpace=wrap;html=1;aspect=fixed;" vertex="1" parent="1">
          <mxGeometry x="530" y="301" width="80" height="80" as="geometry" />
        </mxCell>
        <mxCell id="JcALqnvvGWlkLFH3uQIO-19" value="" style="endArrow=classic;html=1;rounded=0;entryX=0;entryY=0.5;entryDx=0;entryDy=0;exitX=1;exitY=0.5;exitDx=0;exitDy=0;" edge="1" parent="1" source="JcALqnvvGWlkLFH3uQIO-3" target="JcALqnvvGWlkLFH3uQIO-1">
          <mxGeometry width="50" height="50" relative="1" as="geometry">
            <mxPoint x="270" y="561" as="sourcePoint" />
            <mxPoint x="320" y="511" as="targetPoint" />
          </mxGeometry>
        </mxCell>
        <mxCell id="JcALqnvvGWlkLFH3uQIO-20" value="" style="endArrow=classic;html=1;rounded=0;exitX=1;exitY=0.5;exitDx=0;exitDy=0;entryX=0;entryY=0.5;entryDx=0;entryDy=0;" edge="1" parent="1" source="JcALqnvvGWlkLFH3uQIO-2" target="JcALqnvvGWlkLFH3uQIO-3">
          <mxGeometry width="50" height="50" relative="1" as="geometry">
            <mxPoint x="160" y="481" as="sourcePoint" />
            <mxPoint x="250" y="481" as="targetPoint" />
          </mxGeometry>
        </mxCell>
        <mxCell id="JcALqnvvGWlkLFH3uQIO-21" value="" style="endArrow=classic;html=1;rounded=0;entryX=0.5;entryY=1;entryDx=0;entryDy=0;exitX=0.5;exitY=0;exitDx=0;exitDy=0;" edge="1" parent="1" source="JcALqnvvGWlkLFH3uQIO-4" target="JcALqnvvGWlkLFH3uQIO-1">
          <mxGeometry width="50" height="50" relative="1" as="geometry">
            <mxPoint x="270" y="671" as="sourcePoint" />
            <mxPoint x="350" y="671" as="targetPoint" />
          </mxGeometry>
        </mxCell>
        <mxCell id="JcALqnvvGWlkLFH3uQIO-22" value="" style="endArrow=classic;html=1;rounded=0;exitX=0;exitY=0.75;exitDx=0;exitDy=0;entryX=0.993;entryY=0.589;entryDx=0;entryDy=0;entryPerimeter=0;" edge="1" parent="1" source="JcALqnvvGWlkLFH3uQIO-1" target="JcALqnvvGWlkLFH3uQIO-6">
          <mxGeometry width="50" height="50" relative="1" as="geometry">
            <mxPoint x="270" y="701" as="sourcePoint" />
            <mxPoint x="320" y="651" as="targetPoint" />
            <Array as="points">
              <mxPoint x="340" y="501" />
              <mxPoint x="340" y="551" />
              <mxPoint x="340" y="618" />
            </Array>
          </mxGeometry>
        </mxCell>
        <mxCell id="JcALqnvvGWlkLFH3uQIO-25" value="" style="endArrow=classic;html=1;rounded=0;entryX=0.5;entryY=1;entryDx=0;entryDy=0;exitX=0.5;exitY=0;exitDx=0;exitDy=0;" edge="1" parent="1" source="JcALqnvvGWlkLFH3uQIO-26" target="JcALqnvvGWlkLFH3uQIO-2">
          <mxGeometry width="50" height="50" relative="1" as="geometry">
            <mxPoint x="120" y="581" as="sourcePoint" />
            <mxPoint x="330" y="651" as="targetPoint" />
          </mxGeometry>
        </mxCell>
        <mxCell id="JcALqnvvGWlkLFH3uQIO-26" value="flame" style="whiteSpace=wrap;html=1;aspect=fixed;" vertex="1" parent="1">
          <mxGeometry x="80" y="571" width="80" height="80" as="geometry" />
        </mxCell>
        <mxCell id="JcALqnvvGWlkLFH3uQIO-27" value="" style="endArrow=classic;html=1;rounded=0;entryX=1;entryY=0.5;entryDx=0;entryDy=0;exitX=0;exitY=0.5;exitDx=0;exitDy=0;" edge="1" parent="1" source="JcALqnvvGWlkLFH3uQIO-6" target="JcALqnvvGWlkLFH3uQIO-26">
          <mxGeometry width="50" height="50" relative="1" as="geometry">
            <mxPoint x="280" y="701" as="sourcePoint" />
            <mxPoint x="330" y="651" as="targetPoint" />
          </mxGeometry>
        </mxCell>
        <mxCell id="JcALqnvvGWlkLFH3uQIO-31" value="" style="endArrow=classic;html=1;rounded=0;entryX=1;entryY=0.5;entryDx=0;entryDy=0;" edge="1" parent="1" target="JcALqnvvGWlkLFH3uQIO-5">
          <mxGeometry width="50" height="50" relative="1" as="geometry">
            <mxPoint x="530" y="341" as="sourcePoint" />
            <mxPoint x="300" y="381" as="targetPoint" />
          </mxGeometry>
        </mxCell>
        <mxCell id="JcALqnvvGWlkLFH3uQIO-33" value="5V" style="whiteSpace=wrap;html=1;aspect=fixed;" vertex="1" parent="1">
          <mxGeometry x="530" y="441" width="80" height="80" as="geometry" />
        </mxCell>
        <mxCell id="JcALqnvvGWlkLFH3uQIO-34" value="" style="endArrow=classic;html=1;rounded=0;entryX=0.5;entryY=0;entryDx=0;entryDy=0;exitX=0.5;exitY=1;exitDx=0;exitDy=0;" edge="1" parent="1" source="JcALqnvvGWlkLFH3uQIO-18" target="JcALqnvvGWlkLFH3uQIO-33">
          <mxGeometry width="50" height="50" relative="1" as="geometry">
            <mxPoint x="390" y="471" as="sourcePoint" />
            <mxPoint x="440" y="421" as="targetPoint" />
          </mxGeometry>
        </mxCell>
        <mxCell id="JcALqnvvGWlkLFH3uQIO-36" value="" style="endArrow=classic;html=1;rounded=0;entryX=1;entryY=0.5;entryDx=0;entryDy=0;exitX=0;exitY=0.5;exitDx=0;exitDy=0;" edge="1" parent="1" source="JcALqnvvGWlkLFH3uQIO-33" target="JcALqnvvGWlkLFH3uQIO-1">
          <mxGeometry width="50" height="50" relative="1" as="geometry">
            <mxPoint x="480" y="471" as="sourcePoint" />
            <mxPoint x="480" y="531" as="targetPoint" />
          </mxGeometry>
        </mxCell>
        <mxCell id="JcALqnvvGWlkLFH3uQIO-37" value="12V" style="whiteSpace=wrap;html=1;aspect=fixed;" vertex="1" parent="1">
          <mxGeometry x="390" y="160" width="80" height="80" as="geometry" />
        </mxCell>
        <mxCell id="JcALqnvvGWlkLFH3uQIO-38" value="" style="endArrow=classic;html=1;rounded=0;exitX=0.5;exitY=0;exitDx=0;exitDy=0;entryX=0.5;entryY=1;entryDx=0;entryDy=0;" edge="1" parent="1" source="JcALqnvvGWlkLFH3uQIO-5" target="JcALqnvvGWlkLFH3uQIO-37">
          <mxGeometry width="50" height="50" relative="1" as="geometry">
            <mxPoint x="290" y="170" as="sourcePoint" />
            <mxPoint x="340" y="120" as="targetPoint" />
          </mxGeometry>
        </mxCell>
      </root>
    </mxGraphModel>
  </diagram>
</mxfile>
